<svg xmlns="http://www.w3.org/2000/svg" viewBox="0 0 64 64">
  <defs>
    <linearGradient id="bg" x1="0" y1="0" x2="1" y2="1">
      <stop offset="0%" stop-color="#fff7ed" />
      <stop offset="100%" stop-color="#ffedd5" />
    </linearGradient>
    <linearGradient id="flame" x1="0.5" y1="0" x2="0.5" y2="1">
      <stop offset="0%" stop-color="#fb923c" />
      <stop offset="55%" stop-color="#f97316" />
      <stop offset="100%" stop-color="#dc2626" />
    </linearGradient>
    <linearGradient id="inner" x1="0.5" y1="0" x2="0.5" y2="1">
      <stop offset="0%" stop-color="#fde68a" />
      <stop offset="100%" stop-color="#facc15" />
    </linearGradient>
  </defs>
  <rect width="64" height="64" rx="18" fill="url(#bg)" />
  <path
    d="M34 6c2 8-2 12-2 17 0 3 2 5 5 7 5 3 10 9 10 17 0 10-7 17-17 17S13 57 13 46c0-8 4-15 12-22 4-4 7-8 9-18Z"
    fill="url(#flame)"
  />
  <path
    d="M31 26c1 5-1 7-1 10 0 2 1 3 3 4 3 2 6 5 6 10 0 6-4 10-10 10S19 56 19 49c0-5 3-9 7-13 2-2 4-5 5-10Z"
    fill="url(#inner)"
  />
</svg>
